<?xml version="1.0" encoding="utf-8"?>

<svg version="1.2" xmlns="http://www.w3.org/2000/svg"
 width="255.000000pt" height="237.000000pt" viewBox="0 0 255.000000 237.000000"
 preserveAspectRatio="xMidYMid meet" baseProfile="tiny-ps">

<g transform="translate(0.000000,237.000000) scale(0.100000,-0.100000)"
fill="#000000" stroke="none">
<path d="M1013 2294 c-13 -14 -23 -30 -23 -35 0 -5 -4 -9 -8 -9 -9 0 -112
-154 -112 -167 0 -4 -11 -30 -25 -57 -18 -35 -48 -68 -103 -111 -42 -34 -115
-99 -161 -144 -47 -44 -85 -81 -85 -81 -5 0 -242 -240 -272 -275 -68 -81 -72
-114 -9 -77 21 13 63 24 103 28 97 10 120 22 36 20 -53 -2 -85 -9 -123 -28
-28 -14 -51 -21 -51 -16 0 5 7 11 15 14 8 4 15 12 15 20 0 8 3 13 8 12 6 -2
141 131 301 296 25 25 77 71 117 103 40 32 73 62 73 66 1 5 -4 5 -11 1 -7 -5
-8 -3 -4 5 5 7 10 10 13 7 7 -7 64 33 81 56 7 10 19 15 25 12 7 -4 9 -4 5 0
-4 5 2 17 12 29 11 11 17 23 15 27 -3 4 2 13 10 20 7 6 21 34 30 61 9 27 20
47 25 44 7 -4 22 19 24 38 1 4 8 12 16 17 8 5 12 10 8 10 -5 0 1 9 12 20 11
11 20 27 20 35 0 8 5 15 10 15 6 0 10 7 10 15 0 8 7 15 16 15 11 0 14 -6 8
-22 -4 -13 -7 -29 -7 -35 0 -7 -8 -15 -17 -18 -9 -3 -36 -40 -60 -83 -24 -42
-57 -99 -73 -127 -31 -50 -323 -342 -472 -471 -105 -91 -105 -91 -98 -97 3 -4
13 -3 22 2 23 12 201 22 201 12 0 -5 -18 -39 -41 -76 -22 -37 -41 -75 -42 -85
-1 -10 -5 -16 -9 -14 -4 3 -13 -7 -19 -23 -6 -15 -21 -41 -33 -58 -13 -16 -41
-61 -63 -100 -22 -38 -57 -97 -77 -129 -20 -33 -36 -65 -36 -70 1 -17 38 33
67 89 14 28 29 52 33 55 4 3 15 20 24 38 10 19 20 31 23 28 3 -3 21 18 40 47
20 29 46 63 59 78 24 25 32 45 14 34 -19 -12 -10 12 12 31 19 16 20 16 9 1
-26 -33 -3 -29 28 5 33 36 42 59 14 37 -11 -9 -9 -2 6 19 21 30 64 58 83 54 5
-1 7 1 6 6 0 4 2 15 6 25 6 13 20 17 60 17 75 0 125 10 120 24 -2 7 -14 12
-24 13 -11 1 -18 -2 -15 -8 4 -5 0 -10 -7 -10 -71 -7 -109 -6 -114 2 -3 5 -9
7 -14 4 -5 -3 -11 -2 -14 3 -3 5 17 7 44 4 28 -2 50 0 50 4 0 5 -57 11 -126
12 -99 3 -125 1 -119 -9 5 -8 4 -10 -4 -5 -9 6 -9 11 0 22 10 12 9 13 -6 8
-14 -6 -16 -4 -10 6 5 9 4 11 -4 6 -6 -4 -9 -12 -6 -17 3 -5 -1 -6 -10 -3 -14
6 -14 8 1 26 10 10 24 16 31 13 8 -2 12 -1 9 4 -5 8 148 163 354 357 57 54
122 116 143 137 42 39 52 45 44 24 -3 -8 1 -40 9 -73 7 -32 14 -77 14 -99 0
-46 14 -75 29 -60 10 10 3 57 -15 99 -5 13 -4 17 3 13 7 -4 10 5 7 26 -1 17
-3 40 -3 50 -1 9 -8 17 -16 17 -18 0 -19 8 -2 43 14 31 27 35 28 10 0 -10 2
-26 4 -35 2 -10 6 -65 10 -122 7 -101 6 -104 -16 -120 -13 -9 -26 -16 -29 -16
-4 0 -12 48 -19 108 -7 59 -13 113 -14 120 -2 11 -86 -108 -197 -278 -25 -38
-60 -90 -77 -116 -18 -26 -30 -50 -27 -53 5 -5 20 13 27 33 2 5 9 6 17 1 10
-6 9 -11 -6 -22 -17 -13 -15 -14 21 -8 96 15 184 39 178 48 -4 6 6 8 26 4 24
-5 36 -2 53 15 16 16 20 17 15 5 -5 -12 -1 -17 13 -17 17 0 18 2 4 28 -21 42
-18 77 11 96 32 21 32 21 39 -14 3 -16 9 -43 12 -59 4 -25 2 -30 -18 -34 -22
-4 -21 -4 3 -6 25 -1 27 -4 39 -93 7 -51 14 -100 15 -108 1 -8 4 -31 8 -50 5
-28 0 -46 -27 -93 l-33 -58 -13 48 c-21 84 -22 122 -2 151 33 48 37 58 14 38
-15 -13 -22 -15 -22 -6 0 10 -3 10 -14 1 -11 -9 -16 -9 -21 0 -6 8 -10 7 -16
-2 -6 -10 -9 -11 -9 -1 0 6 -4 12 -10 12 -5 0 -7 -6 -4 -13 3 -8 -3 -20 -12
-28 -15 -12 -16 -12 -10 9 4 12 4 22 -1 22 -9 0 -73 -97 -73 -111 0 -14 -101
-181 -107 -176 -6 7 34 92 53 111 9 9 17 23 18 30 1 8 6 20 12 27 6 8 15 26
22 42 9 21 9 27 -1 27 -8 0 -7 4 3 10 13 8 12 10 -2 10 -10 0 -18 -5 -18 -11
0 -8 -5 -8 -15 1 -12 10 -16 9 -21 -3 -3 -9 -13 -13 -25 -10 -10 3 -19 1 -19
-3 0 -5 -39 -8 -87 -7 -49 1 -82 -2 -74 -6 11 -7 11 -10 0 -14 -8 -3 18 -6 56
-6 72 -1 145 14 156 31 4 6 9 7 12 1 4 -6 -5 -30 -18 -54 -14 -24 -45 -82 -69
-129 -62 -121 -67 -129 -108 -190 -20 -30 -41 -67 -47 -82 -6 -16 -15 -28 -21
-28 -5 0 -10 -7 -10 -16 0 -8 -11 -30 -24 -47 -26 -35 -96 -177 -96 -194 0 -6
-7 -24 -15 -39 -8 -16 -15 -39 -15 -51 0 -12 -6 -34 -14 -50 -28 -57 -38 -100
-43 -190 -5 -82 -4 -93 11 -93 9 0 16 7 16 16 0 8 -5 12 -10 9 -6 -3 -10 -1
-10 4 0 6 4 11 9 11 8 0 101 174 101 189 0 3 -9 -5 -20 -17 -24 -26 -61 -108
-53 -116 4 -3 1 -6 -5 -6 -7 0 -12 -9 -12 -20 0 -11 -4 -20 -10 -20 -10 0 -10
51 0 60 10 8 28 100 19 94 -5 -3 -9 -1 -9 4 0 6 6 12 13 15 10 4 33 56 42 97
0 3 4 23 9 44 7 36 90 207 130 268 10 15 19 33 20 40 2 12 44 74 74 108 20 24
62 90 62 99 0 4 7 16 15 27 27 34 -23 -74 -55 -122 -17 -24 -28 -49 -24 -56 4
-6 3 -8 -3 -5 -13 8 -26 -20 -16 -35 3 -6 1 -8 -5 -4 -6 3 -14 -4 -17 -16 -4
-13 -20 -50 -36 -83 -19 -38 -23 -51 -10 -35 10 14 28 35 39 48 12 13 18 31
15 39 -4 10 -2 14 4 10 14 -9 55 42 46 56 -3 5 -2 7 4 4 8 -5 42 40 40 53 -2
13 25 50 33 45 5 -3 12 0 16 6 4 8 3 9 -4 5 -7 -4 -12 -4 -12 1 1 14 31 48 43
48 7 0 11 9 9 19 -2 10 1 15 6 12 11 -7 44 35 85 107 29 50 42 58 44 30 1 -10
15 -54 32 -98 17 -45 28 -88 25 -98 -4 -13 -2 -17 5 -13 6 4 11 0 11 -9 0 -9
-6 -15 -12 -12 -14 4 -37 -21 -38 -41 0 -15 -98 -224 -109 -232 -3 -3 -7 -12
-9 -20 -2 -8 -11 -33 -21 -55 -27 -59 -43 -103 -41 -111 1 -4 -3 -10 -8 -13
-12 -7 -52 -86 -52 -101 0 -7 6 -10 13 -7 6 2 11 10 9 16 -1 7 2 10 7 7 5 -3
29 10 53 30 51 43 58 50 38 39 -13 -8 -13 -6 -1 8 7 9 17 15 21 12 4 -2 22 10
41 27 19 17 28 27 20 23 -10 -6 -12 -4 -7 4 5 7 14 10 21 7 16 -6 38 17 27 28
-4 4 -2 6 3 5 15 -5 66 32 59 42 -3 5 -2 8 3 7 10 -4 55 27 48 33 -2 3 4 5 15
6 13 1 25 -11 39 -41 12 -23 21 -48 21 -56 0 -7 4 -27 9 -44 5 -17 17 -57 26
-89 9 -32 19 -57 21 -54 3 2 0 17 -6 33 -12 31 -29 109 -36 159 -5 41 -22 103
-23 85 -1 -10 -4 -11 -12 -3 -7 7 -8 19 -4 30 5 10 9 22 9 27 1 5 9 10 18 12
9 1 27 11 39 23 12 11 25 18 30 16 11 -7 39 -95 39 -121 0 -22 30 -112 49
-145 5 -9 15 -41 22 -72 8 -32 17 -57 22 -57 5 0 6 8 4 18 -3 9 -10 38 -17 65
-7 26 -16 50 -21 52 -4 3 -4 18 1 34 4 17 4 34 -2 42 -8 11 -9 10 -4 -4 3 -10
2 -15 -4 -12 -10 6 -54 139 -65 198 -4 20 -11 39 -15 42 -5 3 -6 13 -3 23 2
10 -1 47 -7 82 -6 36 -13 83 -15 105 -4 39 -3 39 12 18 21 -31 35 -29 32 5 -4
50 1 83 11 77 11 -7 13 22 4 77 -4 24 -11 35 -18 31 -6 -4 -5 1 3 11 13 16 16
14 26 -28 7 -26 15 -49 18 -53 12 -11 7 40 -8 97 -20 76 -19 105 8 143 12 18
24 34 27 37 3 3 16 28 30 56 19 41 27 50 39 43 47 -25 91 -40 100 -34 6 3 11
2 11 -3 0 -11 104 -92 119 -92 5 0 11 -6 14 -12 3 -7 22 -22 43 -33 22 -11 41
-23 44 -26 3 -4 25 -15 49 -26 l44 -21 -67 -15 c-37 -8 -81 -26 -99 -40 -18
-13 -42 -27 -55 -31 -14 -5 -21 -13 -18 -21 3 -9 0 -12 -9 -8 -13 4 -195 -109
-229 -143 -11 -11 -15 -3 -20 46 -4 33 -12 62 -18 66 -6 4 -8 -1 -5 -12 3 -11
9 -43 12 -71 4 -29 12 -53 18 -53 7 0 4 -5 -6 -11 -13 -8 -15 -14 -7 -29 5
-10 10 -20 10 -23 0 -9 -36 -3 -43 7 -5 6 -6 -2 -3 -19 3 -16 8 -66 12 -110 7
-96 14 -110 14 -30 0 32 3 56 6 52 3 -3 28 11 55 31 26 20 66 49 89 64 22 16
39 33 38 40 -2 7 6 12 17 13 11 0 19 6 18 13 -2 6 4 12 13 12 9 0 12 5 8 12
-4 7 -3 8 4 4 6 -4 22 0 35 9 13 8 27 12 30 8 4 -3 8 -1 8 5 3 22 4 27 17 47
7 11 11 13 9 5 -2 -8 3 -20 11 -26 13 -9 11 -14 -12 -30 -16 -10 -37 -29 -49
-41 -11 -13 -24 -23 -29 -23 -4 0 -18 -9 -30 -20 -13 -10 -26 -18 -30 -17 -4
1 -14 -7 -22 -19 -8 -11 -40 -38 -70 -59 -31 -21 -56 -42 -56 -47 0 -4 -6 -8
-13 -8 -18 0 -22 -44 -11 -115 3 -16 7 -46 10 -65 3 -19 5 -47 5 -62 0 -15 4
-30 9 -33 6 -4 10 -11 10 -16 0 -6 -4 -8 -9 -5 -4 3 -6 -6 -3 -19 2 -14 8 -25
13 -25 5 0 7 -11 3 -25 -4 -15 -2 -25 5 -25 15 0 14 53 -3 125 -8 33 -16 104
-17 157 -3 97 -3 97 27 120 16 12 31 25 34 28 3 3 43 34 90 70 47 35 89 69 93
77 4 7 12 13 17 13 6 0 38 23 72 51 35 28 69 53 76 56 7 3 38 30 69 60 44 42
58 51 69 42 8 -6 14 -8 14 -5 0 6 92 -37 140 -65 74 -43 136 -82 140 -88 3 -4
20 -13 39 -19 19 -7 48 -23 65 -35 28 -22 137 -77 150 -77 10 0 6 38 -4 42
-12 4 -122 101 -195 173 -77 75 -118 110 -166 140 -24 16 -61 41 -81 57 -22
17 -43 26 -50 22 -7 -4 -10 -4 -6 1 11 12 -69 68 -84 59 -9 -6 -9 -3 1 9 11
15 11 17 -2 17 -19 0 -186 127 -257 196 -30 30 -70 64 -87 76 -18 13 -33 28
-33 35 0 14 50 133 63 151 6 7 11 27 12 44 2 28 1 29 -12 13 -12 -17 -17 -38
-14 -57 0 -5 -3 -8 -9 -8 -6 0 -9 -3 -8 -7 4 -15 -15 -58 -29 -68 -8 -6 -15
-17 -17 -25 -2 -8 -7 -24 -11 -34 -7 -15 -1 -26 26 -48 19 -16 41 -35 49 -42
8 -8 27 -20 42 -27 15 -6 25 -15 22 -20 -2 -4 15 -21 38 -37 24 -17 50 -38 59
-49 8 -10 30 -29 49 -43 18 -14 64 -49 102 -77 37 -29 68 -49 68 -45 0 4 5 -1
11 -10 5 -10 17 -18 26 -18 16 0 82 -44 95 -64 4 -6 11 -12 15 -12 34 -6 51
-18 46 -32 -4 -9 -2 -13 4 -9 6 4 14 0 17 -8 3 -8 9 -14 13 -13 13 4 53 -26
53 -38 0 -7 19 -27 43 -45 23 -18 65 -58 92 -88 l50 -55 -40 24 c-22 13 -61
39 -87 57 -27 18 -48 28 -48 22 0 -6 -7 -3 -16 5 -15 15 -29 20 -47 17 -5 -1
-6 3 -3 8 4 5 -11 20 -31 32 -21 13 -41 28 -45 33 -4 6 -8 7 -8 2 0 -4 -10 -2
-22 6 -13 8 -36 18 -53 22 -40 10 -36 8 -64 34 -13 12 -28 22 -33 22 -5 0 -6
5 -3 10 3 6 -1 10 -9 10 -8 0 -18 5 -21 10 -11 18 25 10 42 -9 9 -11 21 -18
25 -14 5 3 16 -3 24 -13 9 -11 12 -12 8 -4 -6 12 -5 13 7 4 8 -7 41 -21 75
-34 33 -12 73 -32 87 -46 14 -13 30 -24 34 -24 4 1 -2 9 -14 19 -12 10 -19 21
-16 25 4 3 1 6 -5 6 -6 0 -20 9 -31 21 -11 12 -23 19 -28 16 -9 -6 -38 12 -44
28 -2 6 -10 9 -16 9 -7 -1 -11 2 -8 6 3 4 -2 11 -11 14 -9 4 -13 2 -8 -5 4 -7
0 -7 -15 1 -12 6 -18 16 -15 22 4 6 3 8 -3 5 -13 -8 -36 17 -25 28 4 4 -2 5
-13 2 -21 -6 -65 22 -65 43 0 6 -7 10 -16 8 -10 -2 -18 5 -20 15 -1 11 -4 20
-6 21 -31 23 -78 45 -78 38 0 -6 6 -13 13 -15 9 -4 9 -6 0 -6 -15 -1 -35 34
-25 43 3 4 -1 4 -10 1 -11 -4 -18 0 -22 13 -8 23 -121 108 -142 105 -9 0 -13
2 -10 5 7 7 -24 42 -37 42 -5 0 -4 -7 3 -15 9 -10 9 -15 1 -15 -11 0 -15 13
-12 37 1 7 -10 15 -23 19 -14 3 -28 14 -31 23 -3 9 -19 22 -36 28 -27 10 -30
16 -25 37 5 19 3 23 -12 20 -20 -5 -53 15 -36 22 6 3 20 11 30 20 30 23 -54
-16 -103 -48 -23 -16 -45 -28 -50 -28 -4 -1 -35 -17 -69 -38 -40 -24 -59 -42
-57 -52 4 -13 3 -13 -6 0 -8 12 -12 12 -28 -1 -27 -24 -43 -31 -43 -21 0 8
114 98 227 178 55 39 62 47 42 42 -10 -2 -50 29 -98 75 -49 45 -87 75 -94 71
-7 -4 -9 -3 -4 1 4 5 -7 24 -25 42 -26 27 -30 36 -19 43 12 7 12 11 2 24 -26
32 -1 15 48 -31 27 -27 69 -65 93 -86 79 -69 98 -89 92 -98 -3 -5 2 -9 10 -9
9 0 16 5 16 11 0 13 26 40 32 34 2 -3 17 9 33 25 37 39 20 38 -34 -1 l-42 -32
-27 24 c-26 22 -113 105 -187 177 -18 17 -38 32 -44 32 -6 0 -11 7 -11 15 0
22 -12 18 -37 -11z m37 -65 c0 -11 -4 -18 -10 -14 -5 3 -7 12 -3 20 7 21 13
19 13 -6z m-20 -64 c0 -28 15 -33 24 -9 4 9 9 14 13 10 7 -6 -35 -56 -48 -56
-4 0 -6 18 -6 40 2 43 17 57 17 15z m17 -167 c-3 -7 -5 -2 -5 12 0 14 2 19 5
13 2 -7 2 -19 0 -25z m-155 -20 c-7 -7 -12 -8 -12 -2 0 14 12 26 19 19 2 -3
-1 -11 -7 -17z m348 -118 c0 -5 -5 -10 -11 -10 -5 0 -7 5 -4 10 3 6 8 10 11
10 2 0 4 -4 4 -10z m75 -72 c19 -13 35 -29 35 -36 0 -7 4 -11 10 -7 5 3 27 -6
49 -19 22 -14 51 -28 66 -32 15 -4 29 -13 32 -20 3 -8 10 -14 17 -14 7 0 21
-7 31 -15 36 -28 160 -105 169 -105 6 0 21 -10 34 -22 14 -13 22 -17 18 -11
-5 9 -2 11 7 7 8 -3 17 -13 20 -23 4 -17 2 -17 -34 -3 -21 8 -36 19 -32 25 4
6 0 8 -10 4 -11 -4 -17 -1 -17 9 0 8 -4 13 -9 9 -6 -3 -24 3 -42 14 -18 11
-37 17 -42 14 -6 -3 -7 -1 -3 5 4 7 1 12 -8 12 -9 0 -16 4 -16 10 0 16 -147
79 -168 72 -14 -4 -47 -62 -44 -75 1 -5 -2 -6 -8 -2 -5 3 -10 0 -10 -8 0 -8
-7 -20 -15 -27 -9 -7 -14 -19 -11 -27 3 -8 2 -12 -2 -9 -5 3 -14 -11 -21 -30
-7 -19 -17 -31 -23 -28 -6 4 -8 -2 -4 -17 3 -13 3 -18 0 -11 -3 6 -10 10 -15
6 -14 -8 -11 0 16 47 29 52 32 66 8 41 -16 -15 -49 -78 -80 -152 -10 -25 -11
-24 -8 6 1 17 9 42 18 55 10 13 17 29 17 35 0 7 16 40 35 74 19 34 35 67 35
73 -1 7 -8 0 -16 -15 -8 -16 -17 -28 -19 -28 -3 0 -4 37 -4 83 1 49 4 70 8 53
6 -27 7 -27 22 -10 9 11 19 24 23 31 8 15 -32 53 -50 46 -9 -3 -14 2 -14 16 0
27 12 26 55 -1z m-5 -58 c0 -5 -2 -10 -4 -10 -3 0 -8 5 -11 10 -3 6 -1 10 4
10 6 0 11 -4 11 -10z m-413 -62 c25 -35 22 -48 -10 -48 -15 0 -18 3 -9 9 10 6
10 10 -2 20 -16 14 -40 6 -31 -10 4 -5 1 -9 -4 -9 -6 0 -10 -6 -8 -12 1 -8
-11 -14 -32 -16 l-33 -3 35 31 c20 17 39 40 42 51 9 28 27 23 52 -13z m-467
-180 c0 -5 -7 -8 -15 -4 -8 3 -19 -2 -24 -12 -5 -9 -12 -14 -15 -11 -3 3 3 15
15 27 20 22 39 22 39 0z m120 -10 c0 -14 -18 -17 -28 -5 -8 10 -6 13 9 13 10
0 19 -4 19 -8z m63 -9 c15 -15 14 -16 -9 -16 -13 0 -29 7 -34 17 -7 13 -5 17
9 16 9 0 25 -8 34 -17z m1259 -9 c9 0 21 -6 27 -14 9 -11 8 -15 -5 -20 -20 -8
-71 27 -71 49 0 13 2 13 17 0 9 -8 24 -15 32 -15z m-1414 8 c-3 -7 -18 -14
-34 -15 -20 -1 -22 0 -6 4 12 2 22 9 22 14 0 5 5 9 11 9 6 0 9 -6 7 -12z m616
-13 c-7 -18 -20 -19 -30 -3 -4 7 -3 8 4 4 7 -4 12 -2 12 3 0 6 4 11 10 11 5 0
7 -7 4 -15z m120 -39 c-9 -15 -19 -25 -21 -22 -5 5 30 56 35 51 2 -2 -4 -15
-14 -29z m-231 -1 c-3 -9 -8 -14 -10 -11 -3 3 -2 9 2 15 9 16 15 13 8 -4z
m-25 -50 c-6 -14 -13 -23 -15 -21 -5 5 15 46 22 46 3 0 -1 -11 -7 -25z m922
-7 c-95 -22 -110 -29 -110 -49 0 -14 -9 -21 -29 -25 -17 -4 -45 -20 -63 -36
-18 -17 -45 -35 -60 -40 -17 -6 -25 -15 -21 -21 3 -7 3 -9 -2 -5 -5 5 -22 -2
-39 -15 -72 -54 -197 -111 -158 -73 4 4 7 12 7 18 0 6 8 12 17 14 10 1 48 24
85 50 67 46 103 76 74 59 -9 -5 -12 -4 -7 3 4 7 18 12 32 12 14 0 22 4 19 10
-3 5 0 7 8 4 8 -3 20 2 27 11 7 8 18 15 25 15 7 0 25 12 40 26 35 32 71 47
112 45 17 -1 34 3 38 8 3 6 13 7 23 4 12 -5 7 -9 -18 -15z m60 -23 c-27 -28
-40 -32 -40 -10 0 8 9 15 19 15 11 0 23 5 26 10 3 6 9 10 12 10 4 0 -4 -11
-17 -25z m-699 -8 c-10 -9 -11 -8 -5 6 3 10 9 15 12 12 3 -3 0 -11 -7 -18z
m642 2 c-8 -8 -16 -8 -30 0 -16 11 -16 11 5 6 14 -4 22 -2 22 6 0 7 3 9 7 6 4
-4 2 -12 -4 -18z m-1383 -19 c-6 -11 -13 -20 -16 -20 -2 0 0 9 6 20 6 11 13
20 16 20 2 0 0 -9 -6 -20z m708 -5 c-6 -14 -13 -23 -15 -21 -5 5 15 46 22 46
3 0 -1 -11 -7 -25z m32 -5 c0 -5 -5 -10 -11 -10 -5 0 -7 5 -4 10 3 6 8 10 11
10 2 0 4 -4 4 -10z m640 -5 c0 -8 -7 -15 -16 -15 -9 0 -12 -5 -8 -12 4 -7 3
-8 -4 -4 -7 4 -12 2 -12 -5 0 -7 -3 -9 -7 -6 -3 4 4 18 17 32 27 29 30 30 30
10z m-781 -60 c0 -5 -4 -3 -9 5 -5 8 -9 22 -9 30 0 16 17 -16 18 -35z m155
-110 c25 -130 25 -130 -31 -158 l-31 -16 -21 84 c-23 92 -25 115 -13 115 5 0
9 -6 9 -12 0 -7 8 -46 18 -86 12 -48 21 -69 26 -60 5 7 9 9 9 5 0 -4 9 -3 20
3 16 8 18 15 11 29 -6 10 -11 29 -13 44 -2 14 -7 30 -12 34 -4 4 -4 -16 0 -45
4 -36 3 -52 -5 -52 -6 0 -11 9 -11 20 0 12 -7 35 -16 52 -17 32 -11 128 8 128
5 0 7 -9 3 -19 -7 -23 4 -71 16 -71 12 0 11 26 -2 73 -5 21 -14 35 -20 32 -12
-8 -11 -3 2 32 10 26 12 27 20 8 5 -11 20 -74 33 -140z m566 151 c0 -2 -7 -7
-16 -10 -8 -3 -12 -2 -9 4 6 10 25 14 25 6z m-40 -26 c0 -5 -5 -10 -11 -10 -5
0 -7 5 -4 10 3 6 8 10 11 10 2 0 4 -4 4 -10z m37 -5 c0 -8 -4 -12 -8 -9 -4 2
-10 0 -14 -6 -3 -5 -14 -10 -23 -9 -13 0 -12 2 4 9 12 5 25 13 29 19 9 15 12
14 12 -4z m-1347 -3 c0 -5 -9 -17 -21 -28 -21 -19 -21 -19 -8 9 12 26 29 37
29 19z m611 -75 c8 -31 13 -36 24 -27 10 9 16 3 26 -27 7 -21 14 -42 15 -48 1
-5 9 -30 18 -54 17 -47 21 -81 8 -81 -4 0 -35 66 -68 147 -69 171 -70 174 -49
148 8 -11 20 -37 26 -58z m56 41 c-3 -8 -6 -5 -6 6 -1 11 2 17 5 13 3 -3 4
-12 1 -19z m609 -4 c-3 -8 -1 -14 4 -14 6 0 10 5 10 10 0 6 5 10 11 10 8 0 7
-5 -1 -15 -17 -20 -33 -14 -35 13 -1 11 2 19 7 16 5 -4 7 -12 4 -20z m-606
-290 c0 -6 -11 -16 -25 -22 -28 -13 -41 -1 -30 26 6 15 8 15 15 -3 8 -19 9
-19 9 2 1 12 -3 24 -8 27 -10 6 -41 -53 -41 -77 0 -8 -7 -20 -15 -27 -21 -18
-19 -8 15 70 17 38 30 74 30 82 0 15 49 -62 50 -78z"/>
<path d="M1353 1650 c-33 -72 -31 -100 1 -32 34 68 46 102 39 102 -5 -1 -22
-32 -40 -70z"/>
<path d="M1326 1685 c-9 -26 -7 -32 5 -12 6 10 9 21 6 23 -2 3 -7 -2 -11 -11z"/>
<path d="M1091 1104 c0 -11 3 -14 6 -6 3 7 2 16 -1 19 -3 4 -6 -2 -5 -13z"/>
<path d="M1733 2313 c-13 -2 -23 -9 -23 -14 0 -5 -5 -9 -11 -9 -28 0 -265
-137 -255 -147 5 -5 89 35 189 91 37 21 70 36 72 34 3 -2 -6 -20 -19 -39 -13
-19 -29 -51 -35 -71 -7 -21 -16 -38 -19 -38 -4 0 -8 -14 -8 -30 -1 -25 1 -28
12 -19 8 6 14 20 14 30 0 11 5 19 10 19 6 0 9 3 8 8 -3 13 21 62 31 62 5 0 12
11 15 25 4 14 11 25 16 25 6 0 10 7 10 15 0 9 7 18 15 21 15 6 22 45 8 43 -5
-1 -18 -4 -30 -6z"/>
<path d="M1620 2185 c-7 -8 -18 -15 -26 -15 -7 0 -19 -6 -26 -13 -7 -7 -34
-26 -60 -41 -53 -31 -77 -56 -32 -33 16 8 53 31 83 51 30 20 56 34 59 32 2 -3
-23 -57 -57 -121 -33 -64 -61 -122 -61 -128 1 -13 50 78 99 178 43 91 52 127
21 90z"/>
<path d="M1414 2054 c-18 -14 -18 -15 4 -4 12 6 22 13 22 15 0 8 -5 6 -26 -11z"/>
<path d="M1360 2019 c0 -5 5 -7 10 -4 6 3 10 8 10 11 0 2 -4 4 -10 4 -5 0 -10
-5 -10 -11z"/>
<path d="M1064 1725 c-7 -27 2 -62 13 -51 11 10 13 76 3 76 -5 0 -12 -11 -16
-25z"/>
<path d="M866 1479 c2 -4 -6 -10 -18 -12 -13 -3 5 -4 39 -3 64 3 100 15 47 17
-16 0 -39 2 -51 3 -12 1 -20 -1 -17 -5z"/>
<path d="M1110 1460 c-8 -5 -11 -10 -6 -10 5 0 3 -7 -4 -15 -18 -22 -4 -85 19
-85 25 0 32 32 18 80 -10 32 -15 38 -27 30z m20 -67 c0 -28 -3 -34 -10 -23
-13 20 -13 60 0 60 6 0 10 -17 10 -37z"/>
<path d="M412 1348 c-12 -24 -22 -50 -22 -59 0 -9 -7 -22 -16 -30 -8 -7 -13
-21 -11 -31 3 -10 1 -16 -4 -13 -4 3 -16 -10 -26 -29 -10 -19 -34 -63 -54 -98
-20 -35 -40 -75 -44 -88 -4 -14 -10 -27 -14 -30 -26 -21 -89 -144 -97 -188 -3
-14 -12 -38 -20 -54 -9 -17 -13 -37 -9 -46 3 -9 3 -13 -1 -9 -12 12 -36 -32
-29 -54 5 -14 3 -19 -3 -15 -6 3 -9 -1 -7 -11 2 -10 4 -20 4 -23 1 -5 31 50
31 57 0 2 -6 1 -12 -3 -7 -3 -1 4 13 17 24 23 59 72 59 84 0 3 -10 1 -21 -6
-17 -9 -20 -8 -13 3 5 7 9 18 11 23 3 16 33 97 46 128 7 15 16 27 22 27 10 0
68 115 63 126 -2 3 5 10 15 15 9 6 15 14 12 20 -4 5 -2 9 4 9 6 0 7 7 4 17 -4
11 -3 14 5 9 7 -4 18 7 28 26 9 18 20 35 23 38 4 3 17 28 28 55 12 28 32 73
44 100 13 28 24 56 25 63 5 25 -12 11 -34 -30z"/>
<path d="M560 1365 c-20 -24 -6 -28 15 -5 10 11 13 20 8 20 -6 0 -16 -7 -23
-15z"/>
<path d="M604 1363 c-11 -10 -38 -40 -59 -68 -22 -27 -43 -52 -47 -55 -4 -3
-25 -33 -47 -65 -22 -33 -59 -86 -82 -118 -23 -31 -40 -60 -37 -63 3 -3 19 14
36 38 17 24 36 48 42 55 5 7 10 17 10 23 0 5 4 10 8 10 5 0 14 10 21 23 6 12
17 32 24 43 14 24 86 111 130 157 31 33 31 47 1 20z"/>
<path d="M1110 1325 c0 -8 2 -15 4 -15 2 0 6 7 10 15 3 8 1 15 -4 15 -6 0 -10
-7 -10 -15z"/>
<path d="M945 1222 c-10 -20 -29 -52 -42 -69 -13 -18 -21 -33 -18 -33 3 0 -6
-18 -20 -40 -14 -22 -25 -42 -25 -45 0 -11 -88 -124 -94 -120 -3 3 -4 2 -1 -1
2 -4 -6 -21 -19 -38 -13 -17 -26 -38 -30 -46 -9 -19 50 47 72 80 9 14 50 69
90 123 44 57 72 103 68 112 -3 8 0 17 6 21 7 4 8 3 4 -4 -9 -15 6 -16 21 -1 7
7 14 0 24 -22 15 -39 14 -80 -4 -94 -6 -6 -13 -17 -15 -25 -1 -8 -9 -28 -16
-45 -8 -16 -22 -50 -31 -75 -10 -25 -23 -57 -31 -72 -8 -14 -14 -33 -14 -42 0
-9 -4 -16 -9 -16 -5 0 -14 -12 -20 -27 -6 -16 -22 -46 -36 -68 -13 -22 -24
-46 -25 -53 0 -7 -27 -68 -60 -134 -33 -67 -60 -129 -60 -138 0 -9 -4 -20 -9
-25 -5 -6 -12 -20 -16 -32 -9 -32 15 -30 47 5 40 43 161 157 185 173 12 9 47
39 78 67 31 29 59 52 63 52 4 0 14 8 23 18 22 24 81 72 90 72 5 0 11 -17 14
-37 3 -21 13 -53 21 -71 8 -18 14 -40 14 -48 0 -9 6 -28 13 -42 14 -27 39 -83
51 -112 3 -8 15 -28 26 -45 11 -16 23 -37 27 -45 23 -50 54 -89 68 -84 12 5
10 10 -10 26 -14 11 -25 28 -25 39 0 10 -5 19 -11 19 -5 0 -15 14 -20 30 -6
17 -15 30 -20 30 -5 0 -9 8 -9 19 0 10 -6 24 -14 30 -8 7 -17 27 -20 46 -4 19
-12 35 -17 35 -6 0 -7 9 -4 21 5 14 3 19 -3 15 -11 -6 -18 9 -26 54 -2 14 -11
43 -21 65 -9 22 -17 53 -17 69 -1 25 -3 27 -13 13 -7 -9 -15 -15 -18 -12 -4 3
-5 2 -3 -1 3 -3 -23 -27 -57 -53 -73 -55 -111 -87 -146 -121 -15 -13 -30 -23
-36 -22 -5 2 -7 0 -3 -3 4 -4 -5 -17 -20 -29 -50 -39 -97 -81 -139 -126 -24
-24 -43 -39 -43 -32 0 18 76 178 88 186 6 4 8 14 5 23 -4 11 -3 14 5 9 7 -4
12 -1 13 6 3 51 69 195 83 180 4 -4 7 -2 6 3 -3 17 12 55 22 55 5 0 7 4 3 9
-3 5 -1 12 5 16 6 4 8 11 5 16 -4 5 -1 9 5 9 12 0 30 42 35 82 2 15 13 45 24
65 11 21 29 60 41 86 l21 48 -20 60 c-12 32 -21 66 -21 73 0 30 -17 24 -35
-12z m13 -26 c-7 -8 -15 -12 -17 -11 -5 6 10 25 20 25 5 0 4 -6 -3 -14z m-48
-75 c-5 -11 -15 -23 -21 -27 -6 -3 -3 5 6 20 20 30 30 35 15 7z"/>
<path d="M1312 1180 c-1 -19 3 -53 7 -75 l9 -40 0 35 c1 19 -3 53 -7 75 l-9
40 0 -35z"/>
<path d="M1291 1094 c0 -11 3 -14 6 -6 3 7 2 16 -1 19 -3 4 -6 -2 -5 -13z"/>
<path d="M310 970 c-8 -6 -11 -10 -7 -10 5 0 -9 -21 -31 -47 -21 -27 -52 -68
-67 -93 -16 -25 -36 -51 -44 -57 -19 -17 -7 -28 16 -14 10 6 14 11 9 11 -11 0
12 35 86 133 58 77 67 95 38 77z"/>
<path d="M1227 809 c-21 -12 -17 -63 9 -125 8 -20 13 -39 10 -42 -3 -3 -2 -10
3 -16 4 -6 16 -36 25 -66 10 -30 24 -68 31 -85 34 -77 105 -264 111 -293 7
-35 -10 -46 -21 -12 -6 18 -45 30 -45 13 1 -5 27 -37 60 -73 l59 -65 -3 45
c-2 25 -17 77 -34 115 -52 118 -130 308 -140 345 -6 19 -17 58 -26 85 -19 59
-21 126 -4 143 9 9 9 12 0 12 -6 0 -9 7 -6 15 7 17 -3 19 -29 4z m199 -678
c-3 -5 1 -11 9 -15 8 -3 15 -11 15 -17 0 -7 -8 -5 -20 6 -17 15 -19 35 -4 35
3 0 3 -4 0 -9z"/>
<path d="M641 757 c-22 -30 -41 -59 -41 -64 0 -6 -7 -16 -15 -23 -8 -7 -15
-21 -15 -32 0 -10 -7 -21 -15 -24 -8 -4 -13 -10 -10 -14 3 -4 -5 -19 -16 -34
-11 -14 -17 -26 -14 -26 4 0 2 -6 -4 -14 -7 -8 -8 -17 -3 -20 5 -3 15 7 22 22
7 15 16 34 21 42 5 8 12 23 15 33 4 9 10 17 14 17 4 0 12 17 18 39 7 21 19 44
27 51 8 7 15 17 15 23 0 6 12 23 27 39 14 15 24 30 21 33 -3 3 -24 -19 -47
-48z"/>
<path d="M1260 749 c0 -15 7 -32 15 -39 12 -10 15 -10 15 4 0 9 -5 16 -11 16
-5 0 -8 4 -5 8 2 4 1 14 -5 22 -6 11 -9 9 -9 -11z"/>
<path d="M1280 680 c0 -5 5 -10 11 -10 5 0 7 5 4 10 -3 6 -8 10 -11 10 -2 0
-4 -4 -4 -10z"/>
<path d="M1291 643 c-1 -22 39 -136 46 -130 2 3 -1 16 -7 31 -5 15 -12 37 -14
49 -2 12 -9 33 -14 47 -10 23 -11 24 -11 3z"/>
<path d="M1344 496 c-3 -8 10 -50 29 -93 18 -43 51 -122 72 -177 34 -87 56
-119 70 -104 3 3 -6 56 -20 118 -14 62 -25 132 -25 156 0 24 -4 45 -9 48 -4 3
-11 19 -14 36 -4 16 -12 30 -18 30 -6 0 -8 -7 -5 -17 14 -34 28 -110 31 -166
2 -32 9 -65 16 -73 6 -8 8 -14 5 -14 -4 0 -1 -10 5 -22 13 -25 29 -88 23 -88
-7 0 -64 130 -64 145 0 7 -8 30 -17 51 -10 22 -18 44 -18 49 -2 30 -39 104
-49 98 -6 -4 -5 0 2 9 9 11 10 18 2 23 -5 3 -13 0 -16 -9z"/>
<path d="M1281 440 c0 -8 6 -24 14 -34 19 -25 19 -9 0 24 -8 14 -14 19 -14 10z"/>
</g>
</svg>
